<svg id="Layer_2" data-name="Layer 2" xmlns="http://www.w3.org/2000/svg" viewBox="0 0 500 500"><title>logo</title><path d="M433.2078,345.36711q-10.47818,0-15.2061-3.63464-4.73055-3.63464-4.73055-13.10364V152.601a26.84559,26.84559,0,0,1,1.94478-10.31129q1.93953-4.73647,7.68715-6.76732a81.589,81.589,0,0,1,10.22063-2.53347,75.407,75.407,0,0,1,11.57409-1.52429v-11.9959H346.19451v11.9959a60.99421,60.99421,0,0,1,11.06687,2.02757A62.47592,62.47592,0,0,1,368.16,137.37909q5.40466,2.53479,7.264,7.01173a25.56482,25.56482,0,0,1,1.86068,9.88423V329.65641q0,7.76994-2.95922,11.40326-2.9566,3.63464-11.06687,3.80284-11.49131.16951-20.528.33639-9.0393.16951-18.66992.1682-11.65687,0-20.61208-.2523-8.95652-.2523-16.05235-.2523a36.33281,36.33281,0,0,1-5.31941-.36366,27.99312,27.99312,0,0,1-5.43735-1.90733,20.468,20.468,0,0,1-5.69835-4.28132,21.44432,21.44432,0,0,1-3.5765-8.25465c-.08114-.523-.17083-1.03826-.22191-1.59-.00936-.08361-.01183-.169-.02037-.25279-.07244-.86333-.11481-1.75523-.11481-2.688V152.67948a26.80937,26.80937,0,0,1,1.94478-10.306q1.93953-4.72858,7.68715-6.75944a81.589,81.589,0,0,1,10.22063-2.53347,86.07379,86.07379,0,0,1,9.00448-1.51969c.50492-.03515,1.02331-.079,1.5-.09625v-11.9959H247.30227v.01922L52.59791,119.563v11.9959a64.368,64.368,0,0,1,11.23769,2.02757,61.494,61.494,0,0,1,11.06687,3.88694,15.27744,15.27744,0,0,1,7.60305,7.01173A22.1788,22.1788,0,0,1,84.7,154.36934V327.38279q0,6.59124-2.36528,10.73047a14.30471,14.30471,0,0,1-7.43223,6.16549q-2.87775,1.35609-10.55965,2.02888-7.69109.678-11.74492,1.01444v11.99458h99.51772V347.32208a75.77068,75.77068,0,0,1-11.57409-1.68986q-7.34813-1.52166-10.22063-3.04332-5.74762-3.04332-7.68715-7.10372a22.95441,22.95441,0,0,1-1.94478-9.97884V134.60087h110.3323V327.367q0,6.59912-2.36791,10.73836a14.303,14.303,0,0,1-7.43223,6.17075q-2.87775,1.35609-10.55965,2.03151-7.69109.678-11.74492,1.01444v11.99458h99.51772v-.09428h99.79893a20.66873,20.66873,0,0,1,13.01165,7.43485,86.34949,86.34949,0,0,1,10.64375,15.88152,125.79765,125.79765,0,0,1,8.4493,18.58582q2.70036,7.93945,4.39153,14.53069h12.67263V345.36711Z"/></svg>