<svg version="1" xmlns="http://www.w3.org/2000/svg" width="666.667" height="666.667" viewBox="0 0 500.000000 500.000000"><path d="M52 125.3v6.4l7.9 1.7c4.3.9 10.6 3 13.9 4.7 4.9 2.4 6.5 3.8 8.1 7.3 2.1 4.2 2.1 5.3 2.1 95.7 0 87-.1 91.6-1.9 95.5-2.2 4.9-7.8 8-16.1 8.9-3 .3-7.4.8-9.7 1.1l-4.3.5V360h101v-12.7l-9.1-1.7c-14-2.6-19.7-6.2-21.8-14.1-.8-2.8-1.1-33.9-1.1-100.3V135h110.1l-.3 98.7c-.3 96.5-.3 98.9-2.3 102.8-2.6 5.2-8.1 8.2-16.5 9-3.6.3-8.2.8-10.2 1.1l-3.8.6V360l102.3.2 102.4.3 3.7 2.9c8.4 6.3 18.7 24.1 24.7 42.5l3.3 10.1H448v-70.8l-11.7-.4c-13.3-.5-17.1-1.8-20.4-7.1-1.9-3.1-1.9-5.3-1.7-98.4.3-94.5.3-95.2 2.4-98 3-4 7.4-5.9 18.5-8l9.9-1.8V119h-99v12.7l7.8 1.6c10.3 2.3 18 6.3 20.7 10.7 2 3.5 2 4.8 2.3 96.1.2 72.9 0 93.4-1 96.4-.9 2.7-2.4 4.6-4.8 5.9-3.4 2-5 2.1-46 2.1h-42.6l-4.9-2.6c-3.4-1.7-5.7-3.8-7.2-6.5l-2.3-3.9V239c0-86.1.1-92.7 1.8-95.9 2.6-5.3 5.9-7 17.5-9.4l10.7-2.2V119H52v6.3z"/></svg>